<svg xmlns="http://www.w3.org/2000/svg" width="199.339" height="199.339" viewBox="0 0 199.339 199.339">
  <g id="Group" transform="translate(-10.331 9.669)">
    <circle id="Oval" cx="75" cy="75" r="75" transform="translate(73.723 189.669) rotate(-115)" fill="rgba(22,112,177,0.1)"/>
    <path id="Path" d="M28.561,29.193a1.15,1.15,0,0,1-1.145-1.131V18.1a9.412,9.412,0,1,0-18.823,0v9.962a1.138,1.138,0,0,1-1.144,1.131H1.126A1.134,1.134,0,0,1,0,28.062V18.1a18.023,18.023,0,1,1,36.046,0v9.962A1.139,1.139,0,0,1,34.9,29.193Z" transform="translate(91.977 54.131)" fill="#3629b7"/>
    <path id="Shape" d="M29.705,31.473a2.276,2.276,0,0,1-2.272-2.28V19.231a8.285,8.285,0,1,0-16.57,0v9.962a2.275,2.275,0,0,1-2.271,2.28H2.271A2.275,2.275,0,0,1,0,29.193V19.231a19.149,19.149,0,1,1,38.3,0v9.962a2.275,2.275,0,0,1-2.271,2.28Z" transform="translate(90.851 53)" fill="#fff"/>
    <path id="Path-2" data-name="Path" d="M2.762,43.844A2.766,2.766,0,0,1,0,41.071V2.774A2.766,2.766,0,0,1,2.762,0H44.985a2.766,2.766,0,0,1,2.762,2.774V41.052a2.766,2.766,0,0,1-2.762,2.774H2.762Z" transform="translate(86.127 81.043)" fill="#3629b7"/>
    <path id="Shape-2" data-name="Shape" d="M3.888,46.088A3.9,3.9,0,0,1,0,42.183V3.905A3.9,3.9,0,0,1,3.888,0H46.112A3.9,3.9,0,0,1,50,3.905V42.183a3.9,3.9,0,0,1-3.888,3.905Z" transform="translate(85 79.912)" fill="#fff"/>
    <path id="Path-3" data-name="Path" d="M43.859,0H35.61V30.178A1.627,1.627,0,0,1,33.975,31.8H0v8.1a1.64,1.64,0,0,0,1.617,1.642H43.841A1.628,1.628,0,0,0,45.458,39.9V1.623A1.6,1.6,0,0,0,43.859,0Z" transform="translate(87.253 82.193)" fill="#1670b1"/>
    <path id="Path-4" data-name="Path" d="M43.859,0H40.77V34.739a1.616,1.616,0,0,1-1.635,1.624H0v3.558a1.64,1.64,0,0,0,1.617,1.642H43.841a1.628,1.628,0,0,0,1.617-1.642V1.623A1.6,1.6,0,0,0,43.859,0Z" transform="translate(87.253 82.193)" fill="#1670b1"/>
    <path id="Path-5" data-name="Path" d="M13.663,6.842a6.832,6.832,0,1,0-9.266,6.4v3.211a2.435,2.435,0,1,0,4.869,0V13.246A6.847,6.847,0,0,0,13.663,6.842Z" transform="translate(103.15 94.016)" fill="#1670b1" stroke="#fff" stroke-linecap="round" stroke-linejoin="round" stroke-miterlimit="10" stroke-width="1.249"/>
  </g>
</svg>
